<svg width="16" height="16" viewBox="0 0 16 16" fill="none" xmlns="http://www.w3.org/2000/svg">
<path d="M8 16C3.5816 16 0 12.4184 0 8C0 3.5816 3.5816 0 8 0C12.4184 0 16 3.5816 16 8C16 12.4184 12.4184 16 8 16ZM4 7.2C3.78783 7.2 3.58434 7.28429 3.43431 7.43431C3.28429 7.58434 3.2 7.78783 3.2 8C3.2 8.21217 3.28429 8.41566 3.43431 8.56569C3.58434 8.71571 3.78783 8.8 4 8.8H12C12.2122 8.8 12.4157 8.71571 12.5657 8.56569C12.7157 8.41566 12.8 8.21217 12.8 8C12.8 7.78783 12.7157 7.58434 12.5657 7.43431C12.4157 7.28429 12.2122 7.2 12 7.2H4Z" fill="#303E3D"/>
</svg>
