<svg width="157" height="42" viewBox="0 0 157 42" fill="none" xmlns="http://www.w3.org/2000/svg">
<path d="M0 26.2763C0 25.0711 0.307518 24.048 0.922555 23.2072C1.56555 22.3664 2.43219 21.7217 3.52248 21.2733C3.66227 21.2172 3.76011 21.2593 3.81602 21.3994C3.87194 21.5395 3.85796 21.6657 3.77409 21.7778C3.27088 22.0581 2.86551 22.4925 2.55799 23.0811C2.27843 23.6697 2.13865 24.3844 2.13865 25.2252C2.13865 26.9349 2.76767 28.2803 4.0257 29.2613C5.28373 30.2422 6.91916 30.7327 8.93201 30.7327C11.5599 30.7327 13.433 30.2142 14.5512 29.1772C15.6974 28.1401 16.2705 26.7808 16.2705 25.0991C16.2705 23.5295 15.949 22.1562 15.306 20.979C14.663 19.7738 13.9502 18.6527 13.1674 17.6156C12.4126 16.5506 11.7137 15.4855 11.0707 14.4204C10.4277 13.3554 10.1062 12.1501 10.1062 10.8048C10.1062 10.02 10.2739 9.26326 10.6094 8.53453C10.9728 7.80581 11.462 7.16116 12.0771 6.6006C12.7201 6.01201 13.4749 5.54955 14.3415 5.21321C15.2082 4.87688 16.1587 4.70871 17.1931 4.70871C18.6188 4.70871 19.7371 5.01702 20.5478 5.63363C21.3865 6.22222 21.8059 6.93694 21.8059 7.77778C21.8059 8.25425 21.5962 8.84284 21.1768 9.54354C20.7854 10.2162 20.3801 10.8048 19.9607 11.3093C19.8489 11.3654 19.7511 11.3514 19.6672 11.2673C19.5833 11.1832 19.5554 11.0851 19.5833 10.973C19.7231 10.7487 19.8349 10.4825 19.9188 10.1742C20.0306 9.83784 20.0865 9.47347 20.0865 9.08108C20.0865 8.63263 19.9887 8.21221 19.793 7.81982C19.5973 7.3994 19.3177 7.04905 18.9543 6.76877C18.5909 6.46046 18.1715 6.22222 17.6963 6.05405C17.221 5.85786 16.7178 5.75976 16.1867 5.75976C14.7888 5.75976 13.7684 6.0961 13.1254 6.76877C12.4825 7.44144 12.161 8.31031 12.161 9.37537C12.161 10.2162 12.3147 11.015 12.6222 11.7718C12.9577 12.5005 13.3631 13.2432 13.8383 14C14.3136 14.7287 14.8168 15.4715 15.348 16.2282C15.9071 16.957 16.4243 17.7277 16.8995 18.5405C17.3748 19.3253 17.7662 20.1662 18.0737 21.0631C18.4092 21.9319 18.5769 22.8849 18.5769 23.9219C18.5769 25.015 18.2973 26.038 17.7382 26.991C17.2071 27.9439 16.4662 28.7848 15.5157 29.5135C14.5652 30.2142 13.4609 30.7748 12.2029 31.1952C10.9449 31.5876 9.58898 31.7838 8.13526 31.7838C5.47942 31.7838 3.45259 31.2653 2.05478 30.2282C0.684928 29.1912 0 27.8739 0 26.2763Z" fill="white"/>
<path d="M34.7088 21.021C35.1841 21.021 35.5895 21.2873 35.9249 21.8198C36.2604 22.3243 36.4282 22.983 36.4282 23.7958C36.4282 24.8889 36.1765 25.9259 35.6733 26.9069C35.1981 27.8599 34.597 28.7007 33.8702 29.4294C33.1433 30.1582 32.3605 30.7327 31.5218 31.1532C30.6832 31.5736 29.9144 31.7838 29.2154 31.7838C28.5445 31.7838 28.0413 31.5736 27.7058 31.1532C27.3983 30.7327 27.2445 30.1582 27.2445 29.4294C27.2445 28.7568 27.3004 27.986 27.4123 27.1171C27.5241 26.2482 27.6499 25.5335 27.7897 24.973C27.2306 25.7017 26.6435 26.5706 26.0284 27.5796C25.4134 28.5886 24.7984 29.6256 24.1833 30.6907C24.0156 30.999 23.75 31.2653 23.3866 31.4895C23.0231 31.6857 22.6737 31.7838 22.3382 31.7838C22.1146 31.7838 22.0307 31.6296 22.0866 31.3213C22.2823 30.6486 22.4361 29.8218 22.5479 28.8408C22.6877 27.8318 22.7576 26.8509 22.7576 25.8979C22.7576 24.9449 22.6877 24.1181 22.5479 23.4174C22.4361 22.7167 22.2124 22.2963 21.8769 22.1562C21.6812 22.1001 21.4576 22.1562 21.206 22.3243C20.9544 22.4925 20.7587 22.7307 20.6189 23.039C20.563 23.0951 20.4931 23.0951 20.4092 23.039C20.3254 22.955 20.2974 22.8569 20.3254 22.7447C20.4652 22.4084 20.7866 22.044 21.2899 21.6517C21.821 21.2312 22.3802 21.021 22.9672 21.021C23.6382 21.021 24.1134 21.3714 24.393 22.0721C24.7005 22.7728 24.8543 23.9219 24.8543 25.5195C24.8543 26.2482 24.8263 26.9209 24.7704 27.5375C24.7145 28.1261 24.6446 28.6446 24.5607 29.0931C25.1199 28.1121 25.651 27.2713 26.1542 26.5706C26.6575 25.8699 27.1327 25.2252 27.58 24.6366C27.7477 24.4124 27.8875 24.1602 27.9994 23.8799C28.1391 23.5716 28.2789 23.1511 28.4187 22.6186C28.4467 22.4504 28.5725 22.2963 28.7961 22.1562C29.0477 21.988 29.2993 21.8619 29.5509 21.7778C29.8305 21.6937 30.0681 21.6517 30.2638 21.6517C30.4595 21.6236 30.5573 21.6797 30.5573 21.8198C30.11 22.7447 29.7746 23.8238 29.5509 25.0571C29.3273 26.2623 29.2154 27.3834 29.2154 28.4204C29.2154 29.1211 29.3832 29.6396 29.7187 29.976C30.0541 30.2843 30.4595 30.4384 30.9348 30.4384C31.438 30.4384 31.9132 30.2843 32.3605 29.976C32.8358 29.6677 33.2551 29.2613 33.6186 28.7568C33.982 28.2523 34.2755 27.6637 34.4992 26.991C34.7228 26.2903 34.8346 25.5616 34.8346 24.8048C34.8346 23.7117 34.625 23.011 34.2056 22.7027C33.7863 22.3944 33.339 22.4364 32.8637 22.8288C32.7519 22.8569 32.668 22.8428 32.6121 22.7868C32.5562 22.7027 32.5422 22.6186 32.5702 22.5345C32.6541 22.3944 32.7938 22.2402 32.9895 22.0721C33.1852 21.8759 33.3809 21.7077 33.5766 21.5676C33.8003 21.3994 34.0099 21.2733 34.2056 21.1892C34.4293 21.0771 34.597 21.021 34.7088 21.021Z" fill="white"/>
<path d="M46.9094 23.1231C46.9094 24.7207 44.7987 25.8138 40.5774 26.4024C40.5494 26.6827 40.5214 26.963 40.4935 27.2432C40.4935 27.5235 40.4935 27.8178 40.4935 28.1261C40.4935 28.8549 40.6612 29.4154 40.9967 29.8078C41.3322 30.2002 41.8633 30.3964 42.5902 30.3964C43.1214 30.3964 43.6665 30.2422 44.2256 29.9339C44.7848 29.6256 45.2321 29.2332 45.5675 28.7568C45.6794 28.7007 45.7632 28.7287 45.8191 28.8408C45.8751 28.9249 45.889 29.023 45.8611 29.1351C45.302 29.8639 44.5891 30.4945 43.7224 31.027C42.8837 31.5315 41.9752 31.7838 40.9967 31.7838C40.0182 31.7838 39.3053 31.5455 38.858 31.0691C38.4387 30.5646 38.229 29.8639 38.229 28.967C38.229 28.0981 38.4108 27.2012 38.7742 26.2763C39.1376 25.3233 39.5989 24.4545 40.158 23.6697C40.7451 22.8849 41.4021 22.2543 42.1289 21.7778C42.8837 21.2733 43.6386 21.021 44.3934 21.021C45.1482 21.021 45.7493 21.2452 46.1966 21.6937C46.6718 22.1141 46.9094 22.5906 46.9094 23.1231ZM43.2612 22.1141C42.6182 22.1141 42.059 22.4224 41.5838 23.039C41.1365 23.6276 40.829 24.5526 40.6612 25.8138C42.0031 25.6737 42.9956 25.4214 43.6386 25.0571C44.2816 24.6647 44.6031 24.1882 44.6031 23.6276C44.6031 23.2072 44.4772 22.8569 44.2256 22.5766C43.974 22.2683 43.6525 22.1141 43.2612 22.1141Z" fill="white"/>
<path d="M56.8607 23.1231C56.8607 24.7207 54.75 25.8138 50.5286 26.4024C50.5006 26.6827 50.4727 26.963 50.4447 27.2432C50.4447 27.5235 50.4447 27.8178 50.4447 28.1261C50.4447 28.8549 50.6124 29.4154 50.9479 29.8078C51.2834 30.2002 51.8146 30.3964 52.5414 30.3964C53.0726 30.3964 53.6177 30.2422 54.1769 29.9339C54.736 29.6256 55.1833 29.2332 55.5188 28.7568C55.6306 28.7007 55.7145 28.7287 55.7704 28.8408C55.8263 28.9249 55.8403 29.023 55.8123 29.1351C55.2532 29.8639 54.5403 30.4945 53.6736 31.027C52.835 31.5315 51.9264 31.7838 50.9479 31.7838C49.9694 31.7838 49.2566 31.5455 48.8093 31.0691C48.3899 30.5646 48.1802 29.8639 48.1802 28.967C48.1802 28.0981 48.362 27.2012 48.7254 26.2763C49.0888 25.3233 49.5501 24.4545 50.1092 23.6697C50.6963 22.8849 51.3533 22.2543 52.0801 21.7778C52.835 21.2733 53.5898 21.021 54.3446 21.021C55.0994 21.021 55.7005 21.2452 56.1478 21.6937C56.623 22.1141 56.8607 22.5906 56.8607 23.1231ZM53.2124 22.1141C52.5694 22.1141 52.0103 22.4224 51.535 23.039C51.0877 23.6276 50.7802 24.5526 50.6124 25.8138C51.9543 25.6737 52.9468 25.4214 53.5898 25.0571C54.2328 24.6647 54.5543 24.1882 54.5543 23.6276C54.5543 23.2072 54.4285 22.8569 54.1769 22.5766C53.9253 22.2683 53.6038 22.1141 53.2124 22.1141Z" fill="white"/>
<path d="M66.1828 21.2312C66.3226 21.2873 66.3785 21.3714 66.3506 21.4835C66.3226 21.5676 66.1968 21.6376 65.9732 21.6937C65.5538 21.6937 65.0646 21.7077 64.5055 21.7357C63.9743 21.7638 63.4012 21.8058 62.7862 21.8619C62.227 23.2352 61.7658 24.5806 61.4023 25.8979C61.0389 27.1872 60.8572 28.2382 60.8572 29.0511C60.8572 30.004 61.2206 30.4805 61.9475 30.4805C62.6743 30.4805 63.4851 29.8498 64.3797 28.5886C64.4635 28.5325 64.5334 28.5325 64.5893 28.5886C64.6732 28.6446 64.7012 28.7427 64.6732 28.8829C64.198 29.6677 63.5969 30.3544 62.87 30.9429C62.1432 31.5035 61.4303 31.7838 60.7314 31.7838C60.0045 31.7838 59.4594 31.6156 59.096 31.2793C58.7605 30.9149 58.5927 30.4244 58.5927 29.8078C58.5927 28.995 58.7884 27.8739 59.1798 26.4444C59.5712 25.015 60.0744 23.5576 60.6894 22.0721C59.9626 22.1562 59.2916 22.2683 58.6766 22.4084C58.5368 22.3804 58.4949 22.3103 58.5508 22.1982C58.6347 22.0861 58.7605 21.974 58.9282 21.8619C59.1239 21.7217 59.3476 21.6096 59.5992 21.5255C59.8508 21.4134 60.0884 21.3574 60.312 21.3574C60.4239 21.3574 60.5357 21.3574 60.6475 21.3574C60.7593 21.3574 60.8712 21.3433 60.983 21.3153C61.3464 20.5025 61.7238 19.7177 62.1152 18.961C62.5066 18.2042 62.898 17.5175 63.2894 16.9009C63.4571 16.7047 63.6808 16.5365 63.9603 16.3964C64.2679 16.2282 64.5614 16.1021 64.841 16.018C65.1205 15.9339 65.3442 15.8919 65.5119 15.8919C65.7076 15.8639 65.7915 15.9059 65.7635 16.018C65.2883 16.7467 64.813 17.5596 64.3377 18.4565C63.8904 19.3534 63.4571 20.2923 63.0378 21.2733C63.5689 21.2452 64.1001 21.2312 64.6313 21.2312C65.1904 21.2312 65.7076 21.2312 66.1828 21.2312Z" fill="white"/>
<path d="M93.0592 16.4805C93.8978 16.7327 94.6387 17.1111 95.2817 17.6156C95.9526 18.1201 96.5117 18.7087 96.959 19.3814C97.4343 20.026 97.7977 20.7127 98.0493 21.4414C98.3009 22.1421 98.4267 22.8288 98.4267 23.5015C98.4267 24.7067 98.1891 25.8138 97.7139 26.8228C97.2666 27.8318 96.5677 28.7147 95.6171 29.4715C94.6946 30.2002 93.5064 30.7748 92.0527 31.1952C90.599 31.5876 88.8797 31.7838 86.8948 31.7838C83.7358 31.7838 80.9821 31.3634 78.6337 30.5225C76.3134 29.6537 74.1887 28.4204 72.2597 26.8228C72.1759 26.6827 72.1898 26.5285 72.3017 26.3604C72.4414 26.1642 72.6371 25.996 72.8887 25.8559C73.1403 25.7157 73.4059 25.6176 73.6855 25.5616C73.993 25.5055 74.2726 25.5335 74.5242 25.6456C75.0553 26.1782 75.5865 26.5285 76.1177 26.6967C76.6488 26.8368 77.3058 26.8368 78.0886 26.6967C78.8155 26.5566 79.4165 26.2903 79.8918 25.8979C80.395 25.4775 80.8423 24.8328 81.2337 23.964C81.653 23.0951 82.0724 21.96 82.4917 20.5586C82.939 19.1572 83.4562 17.3914 84.0433 15.2613C84.6304 13.1592 85.3572 11.3373 86.2239 9.7958C87.1185 8.25426 88.1948 6.95095 89.4528 5.88589C89.2851 5.88589 89.1033 5.88589 88.9077 5.88589C88.7399 5.85786 88.5442 5.84384 88.3206 5.84384C87.398 5.84384 86.4894 5.96997 85.5948 6.22222C84.7002 6.47447 83.8476 6.85285 83.0368 7.35736C82.2541 7.86186 81.5412 8.47848 80.8982 9.20721C80.2552 9.90791 79.738 10.7207 79.3466 11.6456C79.2628 11.7017 79.1789 11.7157 79.095 11.6877C79.0391 11.6316 79.0251 11.5335 79.0531 11.3934C79.3886 10.5245 79.8918 9.68368 80.5627 8.87087C81.2337 8.05806 82.0444 7.34334 82.9949 6.72673C83.9454 6.11011 85.0217 5.61962 86.2239 5.25525C87.426 4.89089 88.698 4.70871 90.0399 4.70871C90.2356 4.70871 90.4173 4.70871 90.585 4.70871C90.7528 4.70871 90.9205 4.72272 91.0882 4.75075C91.6753 4.41441 92.2904 4.12012 92.9333 3.86787C93.5763 3.58759 94.2613 3.36336 94.9881 3.1952C95.1279 3.1952 95.1978 3.25125 95.1978 3.36336C95.1978 3.44745 95.1279 3.51752 94.9881 3.57358C93.9817 3.82583 93.0592 4.24625 92.2205 4.83484C94.6806 5.14314 96.5117 5.84384 97.7139 6.93694C98.9439 8.03003 99.559 9.30531 99.559 10.7628C99.559 11.6036 99.3912 12.3744 99.0558 13.0751C98.7203 13.7758 98.259 14.3784 97.6719 14.8829C97.1128 15.3874 96.4279 15.7798 95.6171 16.0601C94.8344 16.3403 93.9817 16.4805 93.0592 16.4805ZM87.8174 31.1532C89.0754 31.1532 90.1936 30.985 91.1721 30.6486C92.1785 30.2843 93.0172 29.8078 93.6882 29.2192C94.3591 28.6026 94.8623 27.8879 95.1978 27.0751C95.5612 26.2623 95.743 25.3794 95.743 24.4264C95.743 20.7828 93.5065 18.3584 89.0335 17.1532C88.9496 17.0691 88.9775 16.9429 89.1173 16.7748C89.2851 16.5786 89.4947 16.3964 89.7463 16.2282C89.9979 16.032 90.2635 15.8779 90.5431 15.7658C90.8227 15.6537 91.0463 15.6116 91.214 15.6396C91.4936 15.7518 91.7312 15.8358 91.9269 15.8919C92.1506 15.9479 92.4301 15.976 92.7656 15.976C93.2688 15.976 93.7581 15.8639 94.2333 15.6396C94.7365 15.4154 95.1698 15.1211 95.5333 14.7568C95.9247 14.3644 96.2322 13.9019 96.4558 13.3694C96.7074 12.8368 96.8332 12.2623 96.8332 11.6456C96.8332 10.3003 96.33 9.10911 95.3236 8.07207C94.3172 7.03504 92.8075 6.36236 90.7947 6.05405C89.0055 7.9039 87.6077 10.7207 86.6013 14.5045C85.8744 17.2232 85.1475 19.4234 84.4207 21.1051C83.7218 22.7588 82.9809 24.0621 82.1982 25.015C81.4433 25.9399 80.6326 26.5706 79.766 26.9069C78.8993 27.2432 77.9209 27.4394 76.8306 27.4955C78.2563 28.5606 79.9197 29.4434 81.8208 30.1441C83.7218 30.8168 85.7206 31.1532 87.8174 31.1532Z" fill="white"/>
<path d="M111.638 29.1351C111.694 29.0791 111.763 29.0791 111.847 29.1351C111.931 29.1912 111.959 29.2753 111.931 29.3874C111.428 30.1161 110.869 30.7047 110.254 31.1532C109.639 31.5736 109.052 31.7838 108.493 31.7838C107.85 31.7838 107.43 31.3353 107.235 30.4384C107.067 29.5135 107.165 28.4204 107.528 27.1592C106.773 28.3644 105.949 29.4014 105.054 30.2703C104.187 31.1111 103.265 31.6156 102.286 31.7838C101.615 31.7838 101.098 31.4755 100.735 30.8589C100.371 30.2422 100.19 29.5275 100.19 28.7147C100.19 27.7898 100.413 26.8789 100.861 25.982C101.308 25.0571 101.895 24.2302 102.622 23.5015C103.377 22.7728 104.201 22.1842 105.096 21.7357C106.018 21.2593 106.941 21.021 107.864 21.021C108.842 21.021 109.611 21.2593 110.17 21.7357C110.45 21.5395 110.799 21.3714 111.218 21.2312C111.666 21.0911 112.057 21.021 112.393 21.021C112.504 21.021 112.56 21.0911 112.56 21.2312C111.917 22.016 111.358 22.8849 110.883 23.8378C110.436 24.7628 110.086 25.6597 109.835 26.5285C109.583 27.3694 109.429 28.1261 109.373 28.7988C109.317 29.4715 109.373 29.9339 109.541 30.1862C109.681 30.3544 109.918 30.4104 110.254 30.3544C110.589 30.2703 111.051 29.8639 111.638 29.1351ZM103.586 30.2282C103.922 30.2282 104.327 30.018 104.802 29.5976C105.306 29.1772 105.823 28.6166 106.354 27.9159C106.885 27.2152 107.402 26.4304 107.906 25.5616C108.437 24.6927 108.898 23.8098 109.289 22.9129C109.178 22.5485 108.912 22.2543 108.493 22.03C108.101 21.8058 107.64 21.6937 107.109 21.6937C106.466 21.6937 105.865 21.8619 105.306 22.1982C104.746 22.5065 104.257 22.955 103.838 23.5435C103.447 24.1041 103.125 24.7908 102.873 25.6036C102.65 26.3884 102.538 27.2573 102.538 28.2102C102.538 28.8268 102.636 29.3173 102.831 29.6817C103.055 30.046 103.307 30.2282 103.586 30.2282Z" fill="white"/>
<path d="M119.989 26.2342C120.296 27.7197 120.688 28.8689 121.163 29.6817C121.666 30.4665 122.267 30.8589 122.966 30.8589C123.274 30.8589 123.553 30.7888 123.805 30.6486C124.056 30.5085 124.336 30.2422 124.644 29.8498C124.727 29.8218 124.797 29.8499 124.853 29.9339C124.937 29.99 124.965 30.0601 124.937 30.1441C124.07 31.2372 122.98 31.7838 121.666 31.7838C120.604 31.7838 119.793 31.3213 119.234 30.3964C118.703 29.4434 118.27 28.028 117.934 26.1502C117.85 25.9259 117.906 25.7858 118.102 25.7297C118.605 25.8418 119.108 25.8559 119.611 25.7718C120.115 25.6877 120.562 25.5335 120.953 25.3093C121.373 25.0851 121.694 24.7908 121.918 24.4264C122.169 24.0621 122.295 23.6557 122.295 23.2072C122.295 22.5065 121.946 22.1562 121.247 22.1562C120.268 22.1562 119.36 22.6326 118.521 23.5856C117.682 24.5105 117.067 25.8839 116.676 27.7057C116.536 28.1822 116.41 28.6867 116.299 29.2192C116.187 29.7237 116.089 30.1722 116.005 30.5646C115.949 30.7888 115.893 30.957 115.837 31.0691C115.781 31.1532 115.656 31.2513 115.46 31.3634C115.236 31.4755 114.957 31.5736 114.621 31.6577C114.286 31.7417 114.034 31.7838 113.866 31.7838C113.671 31.7838 113.587 31.6436 113.615 31.3634C114.202 28.2523 114.943 25.3233 115.837 22.5766C116.76 19.8018 117.78 17.2513 118.899 14.9249C120.017 12.5986 121.205 10.5105 122.463 8.66066C123.749 6.81081 125.035 5.25525 126.321 3.99399C127.607 2.70471 128.879 1.72372 130.137 1.05105C131.395 0.350351 132.583 0 133.701 0C134.4 0 134.945 0.14014 135.337 0.42042C135.756 0.7007 136.036 1.06506 136.176 1.51351C136.315 1.93393 136.329 2.3964 136.217 2.9009C136.134 3.40541 135.938 3.86787 135.63 4.28829C135.435 4.48448 135.309 4.44244 135.253 4.16216C135.393 3.6016 135.253 3.05505 134.834 2.52252C134.414 1.98999 133.715 1.72372 132.737 1.72372C131.227 1.72372 129.76 2.17217 128.334 3.06907C126.936 3.93794 125.58 5.31131 124.266 7.18919C122.952 9.03904 121.694 11.4214 120.492 14.3363C119.318 17.2232 118.214 20.6847 117.179 24.7207C117.71 23.6837 118.409 22.8148 119.276 22.1141C120.171 21.3854 121.219 21.021 122.421 21.021C123.232 21.021 123.763 21.2312 124.015 21.6517C124.294 22.044 124.434 22.4364 124.434 22.8288C124.434 23.7257 124.015 24.4965 123.176 25.1411C122.337 25.7578 121.275 26.1221 119.989 26.2342Z" fill="white"/>
<path d="M134.75 23.1231C134.75 24.7207 132.64 25.8138 128.418 26.4024C128.39 26.6827 128.362 26.963 128.334 27.2432C128.334 27.5235 128.334 27.8178 128.334 28.1261C128.334 28.8549 128.502 29.4154 128.838 29.8078C129.173 30.2002 129.704 30.3964 130.431 30.3964C130.962 30.3964 131.507 30.2422 132.067 29.9339C132.626 29.6256 133.073 29.2332 133.408 28.7568C133.52 28.7007 133.604 28.7287 133.66 28.8408C133.716 28.9249 133.73 29.023 133.702 29.1351C133.143 29.8639 132.43 30.4945 131.563 31.027C130.725 31.5315 129.816 31.7838 128.838 31.7838C127.859 31.7838 127.146 31.5455 126.699 31.0691C126.28 30.5646 126.07 29.8639 126.07 28.967C126.07 28.0981 126.252 27.2012 126.615 26.2763C126.979 25.3233 127.44 24.4545 127.999 23.6697C128.586 22.8849 129.243 22.2543 129.97 21.7778C130.725 21.2733 131.48 21.021 132.234 21.021C132.989 21.021 133.59 21.2452 134.038 21.6937C134.513 22.1141 134.75 22.5906 134.75 23.1231ZM131.102 22.1141C130.459 22.1141 129.9 22.4224 129.425 23.039C128.977 23.6276 128.67 24.5526 128.502 25.8138C129.844 25.6737 130.837 25.4214 131.48 25.0571C132.122 24.6647 132.444 24.1882 132.444 23.6276C132.444 23.2072 132.318 22.8569 132.067 22.5766C131.815 22.2683 131.493 22.1141 131.102 22.1141Z" fill="white"/>
<path d="M140.466 22.2402C140.466 22.6607 140.424 23.1371 140.34 23.6697C140.257 24.2022 140.145 24.7487 140.005 25.3093C140.564 23.964 141.179 22.9129 141.85 22.1562C142.521 21.3994 143.248 21.021 144.031 21.021C144.45 21.021 144.771 21.1191 144.995 21.3153C145.219 21.5115 145.331 21.7638 145.331 22.0721C145.331 22.3524 145.219 22.7167 144.995 23.1652C144.799 23.6136 144.632 23.9219 144.492 24.0901C144.436 24.1181 144.38 24.1181 144.324 24.0901C144.268 24.034 144.24 23.978 144.24 23.9219C144.24 23.7257 144.156 23.5576 143.989 23.4174C143.849 23.2773 143.625 23.2072 143.318 23.2072C142.339 23.2072 141.445 23.8799 140.634 25.2252C139.851 26.5425 139.124 28.4484 138.453 30.9429C138.425 31.0831 138.328 31.2092 138.16 31.3213C137.992 31.4054 137.796 31.4895 137.573 31.5736C137.377 31.6296 137.167 31.6857 136.944 31.7417C136.72 31.7698 136.524 31.7838 136.357 31.7838C136.049 31.7838 135.965 31.6156 136.105 31.2793C136.357 30.6907 136.594 30.0601 136.818 29.3874C137.07 28.6867 137.293 27.986 137.489 27.2853C137.685 26.5846 137.852 25.9119 137.992 25.2673C138.132 24.5946 138.244 23.978 138.328 23.4174C138.383 22.997 138.397 22.6747 138.37 22.4504C138.37 22.2262 138.258 22.1141 138.034 22.1141C137.754 22.1141 137.461 22.2402 137.153 22.4925C136.874 22.7167 136.608 23.011 136.357 23.3754C136.245 23.4595 136.133 23.4735 136.021 23.4174C135.937 23.3333 135.923 23.2352 135.979 23.1231C136.147 22.8989 136.343 22.6747 136.566 22.4504C136.818 22.1982 137.084 21.974 137.363 21.7778C137.671 21.5536 137.978 21.3714 138.286 21.2312C138.621 21.0911 138.957 21.021 139.292 21.021C139.739 21.021 140.047 21.1331 140.215 21.3574C140.382 21.5536 140.466 21.8478 140.466 22.2402Z" fill="white"/>
<path d="M154.427 22.2402C154.539 21.96 154.846 21.6937 155.349 21.4414C155.853 21.1612 156.3 21.021 156.691 21.021C156.943 21.021 157.041 21.1191 156.985 21.3153C156.37 23.0531 155.755 24.7487 155.14 26.4024C154.553 28.028 153.938 29.7097 153.295 31.4474C151.897 35.0631 150.149 37.7257 148.053 39.4354C145.984 41.1451 143.775 42 141.427 42C139.806 42 138.534 41.6216 137.611 40.8649C136.689 40.1081 136.227 39.1972 136.227 38.1321C136.227 37.5155 136.437 36.9129 136.856 36.3243C137.276 35.7357 137.849 35.3153 138.576 35.0631C138.687 35.035 138.771 35.0631 138.827 35.1471C138.883 35.2312 138.883 35.3153 138.827 35.3994C138.38 35.8759 138.156 36.4785 138.156 37.2072C138.156 38.3844 138.52 39.3373 139.247 40.0661C139.973 40.7948 141.022 41.1592 142.392 41.1592C143.37 41.1592 144.265 41.005 145.075 40.6967C145.886 40.3884 146.641 39.8418 147.34 39.0571C148.067 38.2723 148.766 37.2212 149.437 35.9039C150.108 34.5866 150.792 32.9329 151.491 30.9429C151.827 30.018 152.12 29.1912 152.372 28.4625C152.652 27.7337 152.931 26.9349 153.211 26.0661C152.679 26.9069 152.134 27.6777 151.575 28.3784C151.016 29.0791 150.443 29.6817 149.856 30.1862C149.297 30.6907 148.752 31.0831 148.22 31.3634C147.689 31.6436 147.2 31.7838 146.753 31.7838C146.194 31.7838 145.788 31.6156 145.537 31.2793C145.285 30.9429 145.159 30.4805 145.159 29.8919C145.159 28.9109 145.355 27.7898 145.746 26.5285C146.166 25.2392 146.725 24.006 147.424 22.8288C147.116 23.025 146.837 23.2072 146.585 23.3754C146.333 23.5435 146.096 23.7397 145.872 23.964C145.788 24.02 145.704 24.006 145.621 23.9219C145.565 23.8098 145.565 23.7117 145.621 23.6276C145.816 23.4314 146.082 23.2212 146.417 22.997C146.753 22.7447 147.116 22.5065 147.508 22.2823C147.899 22.0581 148.29 21.8338 148.682 21.6096C149.101 21.3854 149.506 21.1892 149.898 21.021C150.177 21.021 150.289 21.1471 150.233 21.3994C149.786 21.96 149.381 22.5906 149.017 23.2913C148.682 23.964 148.388 24.6507 148.137 25.3514C147.885 26.024 147.689 26.6967 147.55 27.3694C147.438 28.042 147.382 28.6446 147.382 29.1772C147.382 29.962 147.633 30.3544 148.137 30.3544C148.584 30.3544 149.115 30.0741 149.73 29.5135C150.345 28.953 150.946 28.2663 151.533 27.4535C152.148 26.6126 152.707 25.7297 153.211 24.8048C153.742 23.8519 154.147 22.997 154.427 22.2402Z" fill="white"/>
</svg>
