<svg width="22" height="24" viewBox="0 0 22 24" fill="none" xmlns="http://www.w3.org/2000/svg">
<path d="M2.44444 24H19.5556C20.9037 24 22 22.9236 22 21.6V8.4C22 8.08174 21.8712 7.77652 21.642 7.55147C21.4128 7.32643 21.1019 7.2 20.7778 7.2H17.1111V6C17.1111 2.6916 14.3697 0 11 0C7.63033 0 4.88889 2.6916 4.88889 6V7.2H1.22222C0.898069 7.2 0.587192 7.32643 0.357981 7.55147C0.128769 7.77652 0 8.08174 0 8.4V21.6C0 22.9236 1.09633 24 2.44444 24ZM7.33333 6C7.33333 4.0152 8.97844 2.4 11 2.4C13.0216 2.4 14.6667 4.0152 14.6667 6V7.2H7.33333V6ZM2.44444 9.6H4.88889V12H7.33333V9.6H14.6667V12H17.1111V9.6H19.5556L19.558 21.6H2.44444V9.6Z" fill="white"/>
</svg>
